<svg width="18" height="18" viewBox="0 0 18 18" fill="none" xmlns="http://www.w3.org/2000/svg">
<path fill-rule="evenodd" clip-rule="evenodd" d="M11.2972 1.18389C12.821 -0.339942 15.2916 -0.339942 16.8154 1.18389C18.3393 2.70772 18.3393 5.17834 16.8154 6.70217L8.91102 14.6066C8.45942 15.0582 8.19358 15.3241 7.89783 15.5548C7.54925 15.8266 7.17209 16.0597 6.77301 16.2499C6.43443 16.4113 6.07774 16.5302 5.47182 16.7321L2.69589 17.6574L2.02749 17.8802C1.48535 18.0609 0.887644 17.9198 0.483561 17.5158C0.0794764 17.1117 -0.0616222 16.514 0.11909 15.9718L1.26719 12.5275C1.46915 11.9216 1.58803 11.5649 1.74939 11.2263C1.93958 10.8272 2.17268 10.4501 2.44457 10.1015C2.67525 9.80574 2.94112 9.53989 3.39276 9.08828L11.2972 1.18389ZM2.66705 16.3494L5.03498 15.5601C5.69425 15.3404 5.97435 15.2459 6.23524 15.1215C6.55235 14.9704 6.85206 14.7852 7.12906 14.5691C7.35694 14.3914 7.56673 14.1831 8.05812 13.6917L14.366 7.38382C13.7088 7.15203 12.8622 6.72237 12.0696 5.92977C11.277 5.13717 10.8473 4.29051 10.6155 3.63331L4.3076 9.94121C3.81622 10.4326 3.60795 10.6424 3.43021 10.8703C3.21416 11.1473 3.02893 11.447 2.8778 11.7641C2.75347 12.025 2.65896 12.3051 2.4392 12.9643L1.64989 15.3323L2.66705 16.3494ZM11.6294 2.61939C11.6579 2.76519 11.7061 2.96338 11.7865 3.19508C11.9674 3.7167 12.3093 4.40175 12.9534 5.04589C13.5976 5.69002 14.2826 6.03188 14.8042 6.21285C15.0359 6.29323 15.2341 6.3414 15.3799 6.3699L15.9316 5.81829C16.9672 4.78261 16.9672 3.10345 15.9316 2.06777C14.8959 1.0321 13.2167 1.0321 12.181 2.06777L11.6294 2.61939Z" fill="#BBBBBB"/>
</svg>
