<svg width="20" height="20" viewBox="0 0 20 20" fill="none" xmlns="http://www.w3.org/2000/svg">
<path fill-rule="evenodd" clip-rule="evenodd" d="M8.59103 1.87502H11.4089C11.5892 1.8749 11.7463 1.8748 11.8947 1.89849C12.4808 1.99208 12.9879 2.35762 13.262 2.88403C13.3314 3.01727 13.381 3.16634 13.4379 3.33745L13.5309 3.61654C13.5467 3.66378 13.5512 3.67715 13.555 3.68768C13.7009 4.09111 14.0793 4.36383 14.5082 4.3747C14.5195 4.37498 14.5333 4.37503 14.5833 4.37503H17.0833C17.4285 4.37503 17.7083 4.65485 17.7083 5.00003C17.7083 5.34521 17.4285 5.62503 17.0833 5.62503H2.91656C2.57139 5.62503 2.29156 5.34521 2.29156 5.00003C2.29156 4.65485 2.57139 4.37503 2.91656 4.37503H5.41663C5.46667 4.37503 5.48048 4.37498 5.49176 4.3747C5.92063 4.36383 6.29899 4.09113 6.44492 3.6877C6.44875 3.67709 6.45317 3.66401 6.46899 3.61654L6.562 3.33747C6.61891 3.16637 6.6685 3.01728 6.73789 2.88403C7.01201 2.35762 7.51917 1.99208 8.10525 1.89849C8.2536 1.8748 8.41071 1.8749 8.59103 1.87502ZM7.50669 4.37503C7.54962 4.29085 7.58765 4.20337 7.62038 4.1129C7.63031 4.08543 7.64006 4.05619 7.65258 4.01861L7.73575 3.7691C7.81173 3.54118 7.82922 3.49469 7.84657 3.46137C7.93795 3.2859 8.107 3.16405 8.30236 3.13285C8.33947 3.12693 8.38909 3.12503 8.62935 3.12503H11.3706C11.6108 3.12503 11.6605 3.12693 11.6976 3.13285C11.8929 3.16405 12.062 3.2859 12.1534 3.46137C12.1707 3.49469 12.1882 3.54117 12.2642 3.7691L12.3473 4.01846L12.3796 4.11292C12.4123 4.20338 12.4503 4.29085 12.4932 4.37503H7.50669Z" fill="#BBBBBB"/>
<path d="M4.92914 7.04179C4.90618 6.69738 4.60836 6.43679 4.26395 6.45975C3.91954 6.48271 3.65895 6.78053 3.68191 7.12494L4.06812 12.9181C4.13936 13.987 4.19691 14.8505 4.33189 15.528C4.47222 16.2324 4.7109 16.8208 5.2039 17.2821C5.6969 17.7433 6.29985 17.9423 7.01206 18.0355C7.69708 18.1251 8.56244 18.125 9.63373 18.125H10.3661C11.4374 18.125 12.3029 18.1251 12.9879 18.0355C13.7001 17.9423 14.303 17.7433 14.796 17.2821C15.289 16.8208 15.5277 16.2324 15.668 15.528C15.803 14.8505 15.8606 13.987 15.9318 12.9181L16.318 7.12494C16.341 6.78053 16.0804 6.48271 15.736 6.45975C15.3916 6.43679 15.0938 6.69738 15.0708 7.04179L14.6875 12.7911C14.6126 13.9143 14.5593 14.6958 14.4421 15.2838C14.3285 15.8542 14.1699 16.1561 13.9421 16.3692C13.7142 16.5824 13.4024 16.7206 12.8257 16.796C12.2312 16.8738 11.4479 16.875 10.3222 16.875H9.67773C8.55203 16.875 7.76869 16.8738 7.17419 16.796C6.59752 16.7206 6.28573 16.5824 6.05788 16.3692C5.83004 16.1561 5.67143 15.8542 5.5578 15.2838C5.44066 14.6958 5.3873 13.9143 5.31242 12.7911L4.92914 7.04179Z" fill="#BBBBBB"/>
<path d="M7.85445 8.5448C8.19792 8.51045 8.50419 8.76104 8.53854 9.10451L8.95521 13.2712C8.98955 13.6146 8.73896 13.9209 8.3955 13.9553C8.05203 13.9896 7.74576 13.739 7.71141 13.3956L7.29474 9.22889C7.2604 8.88542 7.51099 8.57915 7.85445 8.5448Z" fill="#BBBBBB"/>
<path d="M12.1455 8.5448C12.489 8.57915 12.7396 8.88542 12.7052 9.22889L12.2885 13.3956C12.2542 13.739 11.9479 13.9896 11.6045 13.9553C11.261 13.9209 11.0104 13.6146 11.0447 13.2712L11.4614 9.10451C11.4958 8.76104 11.802 8.51045 12.1455 8.5448Z" fill="#BBBBBB"/>
</svg>
