<svg width="18" height="17" viewBox="0 0 18 17" fill="none" xmlns="http://www.w3.org/2000/svg">
<path d="M9 16.6538L8.2423 15.9691C6.61025 14.4781 5.26025 13.2018 4.1923 12.1403C3.12435 11.0788 2.2814 10.1425 1.66345 9.33163C1.0455 8.52073 0.613775 7.78708 0.368275 7.13068C0.122758 6.47426 0 5.814 0 5.1499C0 3.8781 0.43205 2.81015 1.29615 1.94605C2.16025 1.08195 3.2282 0.649902 4.5 0.649902C5.37948 0.649902 6.20448 0.874902 6.975 1.3249C7.74552 1.7749 8.42052 2.42939 9 3.28835C9.57948 2.42939 10.2545 1.7749 11.025 1.3249C11.7955 0.874902 12.6205 0.649902 13.5 0.649902C14.7718 0.649902 15.8398 1.08195 16.7038 1.94605C17.5679 2.81015 18 3.8781 18 5.1499C18 5.814 17.8772 6.47426 17.6317 7.13068C17.3862 7.78708 16.9545 8.52073 16.3365 9.33163C15.7186 10.1425 14.8789 11.0788 13.8173 12.1403C12.7558 13.2018 11.4026 14.4781 9.7577 15.9691L9 16.6538ZM9 15.2999C10.6 13.8538 11.9167 12.615 12.95 11.5836C13.9833 10.5522 14.8 9.65729 15.4 8.89895C16 8.14062 16.4167 7.46882 16.65 6.88355C16.8833 6.2983 17 5.72042 17 5.1499C17 4.1499 16.6667 3.31657 16 2.6499C15.3333 1.98324 14.5 1.6499 13.5 1.6499C12.7038 1.6499 11.9692 1.87714 11.2962 2.33163C10.6231 2.78611 10.0205 3.47041 9.48847 4.38453H8.51153C7.96666 3.45759 7.36089 2.77009 6.69423 2.32203C6.02756 1.87394 5.29615 1.6499 4.5 1.6499C3.51282 1.6499 2.68269 1.98324 2.00962 2.6499C1.33654 3.31657 1 4.1499 1 5.1499C1 5.72042 1.11667 6.2983 1.35 6.88355C1.58333 7.46882 2 8.14062 2.6 8.89895C3.2 9.65729 4.01667 10.549 5.05 11.574C6.08333 12.599 7.4 13.8409 9 15.2999Z" fill="#8D8D8D"/>
</svg>
